<?xml version="1.0" encoding="UTF-8" standalone="no"?>
<!-- Created with Inkscape (http://www.inkscape.org/) -->

<svg
   width="512"
   height="512"
   viewBox="0 0 512 512"
   version="1.1"
   id="svg5"
   xml:space="preserve"
   inkscape:version="1.2.1 (9c6d41e410, 2022-07-14)"
   sodipodi:docname="chart.svg"
   xmlns:inkscape="http://www.inkscape.org/namespaces/inkscape"
   xmlns:sodipodi="http://sodipodi.sourceforge.net/DTD/sodipodi-0.dtd"
   xmlns="http://www.w3.org/2000/svg"
   xmlns:svg="http://www.w3.org/2000/svg"><sodipodi:namedview
     id="namedview7"
     pagecolor="#ffffff"
     bordercolor="#000000"
     borderopacity="0.25"
     inkscape:showpageshadow="2"
     inkscape:pageopacity="0.0"
     inkscape:pagecheckerboard="0"
     inkscape:deskcolor="#d1d1d1"
     inkscape:document-units="px"
     showgrid="false"
     inkscape:zoom="0.4609375"
     inkscape:cx="248.40678"
     inkscape:cy="496.81356"
     inkscape:window-width="1920"
     inkscape:window-height="1017"
     inkscape:window-x="1672"
     inkscape:window-y="166"
     inkscape:window-maximized="1"
     inkscape:current-layer="layer1" /><defs
     id="defs2" /><g
     inkscape:label="Layer 1"
     inkscape:groupmode="layer"
     id="layer1"><path
       id="path976"
       style="color:#000000;opacity:0.5;fill:#000000;stroke-width:20;stroke-linecap:round;stroke-linejoin:round;-inkscape-stroke:none"
       d="M 10,0.0234375 A 10,10 0 0 0 0,10.023438 V 501.97656 a 10,10 0 0 0 0.00390625,0.0117 A 10,10 0 0 0 0,502 10,10 0 0 0 10,512 h 491.95312 a 10,10 0 0 0 10,-10 10,10 0 0 0 -10,-10 H 20 V 10.023438 A 10,10 0 0 0 10,0.0234375 Z" /><path
       id="path988"
       style="color:#000000;opacity:0.5;fill:#000000;stroke-width:20;stroke-linecap:round;stroke-linejoin:round;-inkscape-stroke:none"
       d="m 60,262 a 10.001,10.001 0 0 0 -10,10 v 180 a 10.001,10.001 0 0 0 10,10 h 60 a 10.001,10.001 0 0 0 10,-10 V 272 a 10.001,10.001 0 0 0 -10,-10 z" /><path
       id="path994"
       style="color:#000000;opacity:0.5;fill:#000000;stroke-width:20;stroke-linecap:round;stroke-linejoin:round;-inkscape-stroke:none"
       d="m 177.33398,62 a 10.001,10.001 0 0 0 -10,10 v 380 a 10.001,10.001 0 0 0 10,10 h 60 a 10.001,10.001 0 0 0 10,-10 V 72 a 10.001,10.001 0 0 0 -10,-10 z" /><path
       id="path1000"
       style="color:#000000;opacity:0.5;fill:#000000;stroke-width:20;stroke-linecap:round;stroke-linejoin:round;-inkscape-stroke:none"
       d="m 294.66602,192 a 10.001,10.001 0 0 0 -10,10 v 250 a 10.001,10.001 0 0 0 10,10 h 60 a 10.001,10.001 0 0 0 10,-10 V 202 a 10.001,10.001 0 0 0 -10,-10 z" /><path
       id="path1006"
       style="color:#000000;opacity:0.5;fill:#000000;stroke-width:20;stroke-linecap:round;stroke-linejoin:round;-inkscape-stroke:none"
       d="m 412,132 a 10.001,10.001 0 0 0 -10,10 v 310 a 10.001,10.001 0 0 0 10,10 h 60 a 10.001,10.001 0 0 0 10,-10 V 142 a 10.001,10.001 0 0 0 -10,-10 z" /></g></svg>
