<?xml version="1.0" encoding="UTF-8" standalone="no"?>
<!-- Created with Inkscape (http://www.inkscape.org/) -->

<svg
   width="512"
   height="512"
   viewBox="0 0 512 512"
   version="1.1"
   id="svg5"
   inkscape:version="1.2.1 (9c6d41e410, 2022-07-14)"
   sodipodi:docname="four-dots.svg"
   xmlns:inkscape="http://www.inkscape.org/namespaces/inkscape"
   xmlns:sodipodi="http://sodipodi.sourceforge.net/DTD/sodipodi-0.dtd"
   xmlns="http://www.w3.org/2000/svg"
   xmlns:svg="http://www.w3.org/2000/svg">
  <sodipodi:namedview
     id="namedview7"
     pagecolor="#ffffff"
     bordercolor="#000000"
     borderopacity="0.25"
     inkscape:showpageshadow="2"
     inkscape:pageopacity="0.0"
     inkscape:pagecheckerboard="0"
     inkscape:deskcolor="#d1d1d1"
     inkscape:document-units="px"
     showgrid="false"
     inkscape:zoom="0.75390625"
     inkscape:cx="260.64249"
     inkscape:cy="237.43005"
     inkscape:window-width="1920"
     inkscape:window-height="1017"
     inkscape:window-x="1672"
     inkscape:window-y="166"
     inkscape:window-maximized="1"
     inkscape:current-layer="layer1" />
  <defs
     id="defs2" />
  <g
     inkscape:label="Layer 1"
     inkscape:groupmode="layer"
     id="layer1">
    <path
       id="path236"
       style="opacity:0.491765;stroke-width:176.894"
       d="M 331,75 A 75,75 0 0 1 256,150 75,75 0 0 1 181,75 75,75 0 0 1 256,0 75,75 0 0 1 331,75 Z" />
    <path
       id="circle959"
       style="opacity:0.491765;stroke-width:176.894"
       d="m 512,256 a 75,75 0 0 1 -75,75 75,75 0 0 1 -75,-75 75,75 0 0 1 75,-75 75,75 0 0 1 75,75 z" />
    <path
       id="circle961"
       style="opacity:0.491765;stroke-width:176.894"
       d="m 331,437 a 75,75 0 0 1 -75,75 75,75 0 0 1 -75,-75 75,75 0 0 1 75,-75 75,75 0 0 1 75,75 z" />
    <path
       id="circle963"
       style="opacity:0.491765;stroke-width:176.894"
       d="M 150,256 A 75,75 0 0 1 75,331 75,75 0 0 1 0,256 75,75 0 0 1 75,181 75,75 0 0 1 150,256 Z" />
  </g>
</svg>
