<?xml version="1.0" encoding="UTF-8" standalone="no"?>
<!-- Created with Inkscape (http://www.inkscape.org/) -->

<svg
   width="512"
   height="512"
   viewBox="0 0 135.46667 135.46667"
   version="1.1"
   id="svg3872"
   inkscape:version="1.2.1 (9c6d41e410, 2022-07-14)"
   sodipodi:docname="official-holidays3.svg"
   xmlns:inkscape="http://www.inkscape.org/namespaces/inkscape"
   xmlns:sodipodi="http://sodipodi.sourceforge.net/DTD/sodipodi-0.dtd"
   xmlns="http://www.w3.org/2000/svg"
   xmlns:svg="http://www.w3.org/2000/svg">
  <sodipodi:namedview
     id="namedview3874"
     pagecolor="#ffffff"
     bordercolor="#000000"
     borderopacity="0.25"
     inkscape:showpageshadow="2"
     inkscape:pageopacity="0.0"
     inkscape:pagecheckerboard="0"
     inkscape:deskcolor="#d1d1d1"
     inkscape:document-units="mm"
     showgrid="false"
     inkscape:zoom="1.4375"
     inkscape:cx="206.26087"
     inkscape:cy="286.6087"
     inkscape:window-width="1680"
     inkscape:window-height="981"
     inkscape:window-x="-8"
     inkscape:window-y="-8"
     inkscape:window-maximized="1"
     inkscape:current-layer="layer1" />
  <defs
     id="defs3869" />
  <g
     inkscape:label="Layer 1"
     inkscape:groupmode="layer"
     id="layer1">
    <path
       id="path3413"
       style="opacity:0.5;color:#000000;fill:#000000;stroke-width:5.29167;stroke-linecap:round;stroke-linejoin:round;-inkscape-stroke:none"
       d="M 15.931844 16.867187 A 2.6458349 2.6458349 0 0 0 13.284977 19.513538 L 13.284977 28.111462 A 2.6458349 2.6458349 0 0 0 15.931844 30.757812 A 2.6458349 2.6458349 0 0 0 18.576127 28.111462 L 18.576127 19.513538 A 2.6458349 2.6458349 0 0 0 15.931844 16.867187 z M 47.644637 16.867187 A 2.6458349 2.6458349 0 0 0 44.998287 19.513538 L 44.998287 28.111462 A 2.6458349 2.6458349 0 0 0 47.644637 30.757812 A 2.6458349 2.6458349 0 0 0 50.28892 28.111462 L 50.28892 19.513538 A 2.6458349 2.6458349 0 0 0 47.644637 16.867187 z M 79.355363 17.1974 A 2.6458349 2.6458349 0 0 0 76.71108 19.84375 L 76.71108 27.78125 A 2.6458349 2.6458349 0 0 0 79.355363 30.4276 A 2.6458349 2.6458349 0 0 0 82.001713 27.78125 L 82.001713 19.84375 A 2.6458349 2.6458349 0 0 0 79.355363 17.1974 z M 111.06816 17.1974 A 2.6458349 2.6458349 0 0 0 108.42387 19.84375 L 108.42387 27.78125 A 2.6458349 2.6458349 0 0 0 111.06816 30.4276 A 2.6458349 2.6458349 0 0 0 113.71502 27.78125 L 113.71502 19.84375 A 2.6458349 2.6458349 0 0 0 111.06816 17.1974 z M 2.6463501 23.8125 A 2.6460995 2.6460995 0 0 0 0 26.45885 L 0 108.47865 A 2.6460995 2.6460995 0 0 0 2.6463501 111.125 L 60.227848 111.125 C 60.227391 109.36127 60.227239 107.59758 60.227332 105.83385 L 7.9375 105.83385 A 2.6460995 2.6460995 0 0 1 5.2911499 103.1875 L 5.2911499 42.33385 A 2.6460995 2.6460995 0 0 1 7.9375 39.6875 L 119.0625 39.6875 A 2.6460995 2.6460995 0 0 1 121.70885 42.33385 L 121.70885 77.379256 C 123.00681 77.144873 124.38908 77.252348 125.69259 77.265051 C 126.16464 77.355267 126.58763 77.239158 127 77.068681 L 127 26.45885 A 2.6460995 2.6460995 0 0 0 124.35365 23.8125 L 115.30304 23.8125 C 115.29098 24.651059 115.2799 25.489335 115.29994 26.325008 C 115.51075 28.091293 115.09944 30.12574 113.56464 31.211015 C 111.36994 32.951383 107.71117 31.65533 107.01156 28.970841 C 106.79956 27.261827 106.80632 25.537408 106.8281 23.8125 L 83.58973 23.8125 C 83.576331 24.650635 83.563635 25.488307 83.584562 26.322941 C 83.805999 28.125784 83.363344 30.227567 81.746431 31.278194 C 79.543514 32.928164 75.989117 31.604284 75.296696 28.970841 C 75.087465 27.26136 75.093928 25.537015 75.115312 23.8125 L 51.87797 23.8125 C 51.86576 24.72699 51.853964 25.641272 51.873836 26.552901 C 52.069625 28.314759 51.736027 30.346004 50.226392 31.472498 C 48.043472 33.317804 44.259777 32.011105 43.576152 29.267464 C 43.377421 27.457988 43.38211 25.635484 43.402519 23.8125 L 20.165177 23.8125 C 20.152967 24.726989 20.141171 25.641273 20.161043 26.552901 C 20.356832 28.314757 20.023232 30.346005 18.513599 31.472498 C 16.330681 33.317802 12.546984 32.011102 11.863359 29.267464 C 11.6646 27.457897 11.668796 25.635576 11.689209 23.8125 L 2.6463501 23.8125 z M 15.583028 47.418811 A 2.3555236 2.3555236 0 0 0 13.229167 49.772673 L 13.229167 58.294116 A 2.3555236 2.3555236 0 0 0 15.583028 60.647978 L 24.104472 60.647978 A 2.3555236 2.3555236 0 0 0 26.458333 58.294116 L 26.458333 49.772673 A 2.3555236 2.3555236 0 0 0 24.104472 47.418811 L 15.583028 47.418811 z M 37.411153 47.418811 A 2.3555236 2.3555236 0 0 0 35.057292 49.772673 L 35.057292 58.294116 A 2.3555236 2.3555236 0 0 0 37.411153 60.647978 L 45.932597 60.647978 A 2.3555236 2.3555236 0 0 0 48.286458 58.294116 L 48.286458 49.772673 A 2.3555236 2.3555236 0 0 0 45.932597 47.418811 L 37.411153 47.418811 z M 59.239278 47.418811 A 2.3555236 2.3555236 0 0 0 56.885417 49.772673 L 56.885417 58.294116 A 2.3555236 2.3555236 0 0 0 59.239278 60.647978 L 67.760722 60.647978 A 2.3555236 2.3555236 0 0 0 70.114583 58.294116 L 70.114583 49.772673 A 2.3555236 2.3555236 0 0 0 67.760722 47.418811 L 59.239278 47.418811 z M 81.067403 47.418811 A 2.3555236 2.3555236 0 0 0 78.713542 49.772673 L 78.713542 58.294116 A 2.3555236 2.3555236 0 0 0 81.067403 60.647978 L 89.588847 60.647978 A 2.3555236 2.3555236 0 0 0 91.942708 58.294116 L 91.942708 49.772673 A 2.3555236 2.3555236 0 0 0 89.588847 47.418811 L 81.067403 47.418811 z M 102.89553 47.418811 A 2.3555236 2.3555236 0 0 0 100.54167 49.772673 L 100.54167 58.294116 A 2.3555236 2.3555236 0 0 0 102.89553 60.647978 L 111.41697 60.647978 A 2.3555236 2.3555236 0 0 0 113.77083 58.294116 L 113.77083 49.772673 A 2.3555236 2.3555236 0 0 0 111.41697 47.418811 L 102.89553 47.418811 z M 15.583028 66.560795 A 2.3555236 2.3555236 0 0 0 13.229167 68.915173 L 13.229167 77.4361 A 2.3555236 2.3555236 0 0 0 15.583028 79.789962 L 24.104472 79.789962 A 2.3555236 2.3555236 0 0 0 26.458333 77.4361 L 26.458333 68.915173 A 2.3555236 2.3555236 0 0 0 24.104472 66.560795 L 15.583028 66.560795 z M 37.411153 66.560795 A 2.3555236 2.3555236 0 0 0 35.057292 68.915173 L 35.057292 77.4361 A 2.3555236 2.3555236 0 0 0 37.411153 79.789962 L 45.932597 79.789962 A 2.3555236 2.3555236 0 0 0 48.286458 77.4361 L 48.286458 68.915173 A 2.3555236 2.3555236 0 0 0 45.932597 66.560795 L 37.411153 66.560795 z M 59.239278 66.560795 A 2.3555236 2.3555236 0 0 0 56.885417 68.915173 L 56.885417 77.4361 A 2.3555236 2.3555236 0 0 0 59.239278 79.789962 L 59.827356 79.789962 C 60.659949 77.858913 62.600594 76.39651 64.727832 76.258394 C 66.519215 76.330182 68.336063 76.115074 70.114583 76.406189 L 70.114583 68.915173 A 2.3555236 2.3555236 0 0 0 67.760722 66.560795 L 59.239278 66.560795 z M 81.067403 66.560795 A 2.3555236 2.3555236 0 0 0 78.713542 68.915173 L 78.713542 77.4361 A 2.3555236 2.3555236 0 0 0 78.77297 77.810238 C 78.868447 77.861557 78.96348 77.914398 79.056673 77.974569 C 80.703886 77.06997 82.642204 77.244281 84.451176 77.263501 C 84.370431 74.539604 86.195607 71.705618 88.943408 71.117106 C 89.942849 71.071423 90.942769 71.041801 91.942708 71.017887 L 91.942708 68.915173 A 2.3555236 2.3555236 0 0 0 89.588847 66.560795 L 81.067403 66.560795 z M 102.89553 66.560795 A 2.3555236 2.3555236 0 0 0 100.54167 68.915173 L 100.54167 70.964144 C 102.91087 70.972441 105.2799 70.981896 107.64821 70.951225 C 108.69378 70.889269 109.75675 70.993074 110.7519 71.330013 C 112.10354 71.727665 113.12275 72.694909 113.77083 73.889547 L 113.77083 68.915173 A 2.3555236 2.3555236 0 0 0 111.41697 66.560795 L 102.89553 66.560795 z M 15.583028 85.703296 A 2.3555236 2.3555236 0 0 0 13.229167 88.057157 L 13.229167 96.578084 A 2.3555236 2.3555236 0 0 0 15.583028 98.932463 L 24.104472 98.932463 A 2.3555236 2.3555236 0 0 0 26.458333 96.578084 L 26.458333 88.057157 A 2.3555236 2.3555236 0 0 0 24.104472 85.703296 L 15.583028 85.703296 z M 37.411153 85.703296 A 2.3555236 2.3555236 0 0 0 35.057292 88.057157 L 35.057292 96.578084 A 2.3555236 2.3555236 0 0 0 37.411153 98.932463 L 45.932597 98.932463 A 2.3555236 2.3555236 0 0 0 48.286458 96.578084 L 48.286458 88.057157 A 2.3555236 2.3555236 0 0 0 45.932597 85.703296 L 37.411153 85.703296 z M 59.239278 85.703296 A 2.3555236 2.3555236 0 0 0 56.885417 88.057157 L 56.885417 96.578084 A 2.3555236 2.3555236 0 0 0 59.239278 98.932463 L 60.232499 98.932463 C 60.236373 96.008192 60.241981 93.084126 60.25472 90.159871 C 60.443176 89.184362 59.845569 88.368941 59.595329 87.472697 C 59.499335 86.887395 59.445818 86.296478 59.414978 85.703296 L 59.239278 85.703296 z " />
    <path
       id="path3152"
       style="color:#000000;display:inline;opacity:0.5;fill:#000000;stroke-width:5.29167;stroke-linecap:round;stroke-linejoin:round"
       d="m 90.185604,75.200453 a 1.4261818,1.436023 0 0 0 -1.426244,1.435836 v 4.847967 H 81.278704 V 124.56073 H 117.80963 V 81.484256 h -7.48065 v -4.847967 a 1.4261818,1.436023 0 0 0 -1.42625,-1.435836 z m 1.42597,2.871672 h 15.865196 v 3.412131 H 91.611574 Z m -26.586682,2.427411 a 1.4033628,1.4033628 0 0 0 -1.403222,1.40322 v 4.20967 a 1.4033628,1.4033628 0 0 0 0.841934,1.28099 v 31.115364 a 1.4033628,1.4033628 0 0 0 -0.841934,1.28099 v 4.20967 a 1.4033628,1.4033628 0 0 0 1.403222,1.40322 h 4.209668 a 1.4033628,1.4033628 0 0 0 1.280989,-0.84193 H 77.00052 V 81.484256 h -6.435091 a 1.4033628,1.4033628 0 0 0 -1.330869,-0.98472 z m 64.828888,0 a 1.4033628,1.4033628 0 0 0 -1.33087,0.98472 h -6.43509 v 43.076474 h 6.48497 a 1.4033628,1.4033628 0 0 0 1.28099,0.84193 h 4.20967 a 1.4033628,1.4033628 0 0 0 1.40322,-1.40322 v -4.20967 a 1.4033628,1.4033628 0 0 0 -0.84194,-1.28099 V 87.393416 a 1.4033628,1.4033628 0 0 0 0.84194,-1.28099 v -4.20967 a 1.4033628,1.4033628 0 0 0 -1.40322,-1.40322 z" />
  </g>
</svg>
