<?xml version="1.0" encoding="UTF-8" standalone="no"?>
<!-- Created with Inkscape (http://www.inkscape.org/) -->

<svg
   width="256mm"
   height="256mm"
   viewBox="0 0 256 256"
   version="1.1"
   id="svg28772"
   inkscape:version="1.2.1 (9c6d41e410, 2022-07-14)"
   sodipodi:docname="play.svg"
   xmlns:inkscape="http://www.inkscape.org/namespaces/inkscape"
   xmlns:sodipodi="http://sodipodi.sourceforge.net/DTD/sodipodi-0.dtd"
   xmlns="http://www.w3.org/2000/svg"
   xmlns:svg="http://www.w3.org/2000/svg">
  <sodipodi:namedview
     id="namedview28774"
     pagecolor="#ffffff"
     bordercolor="#000000"
     borderopacity="0.25"
     inkscape:showpageshadow="2"
     inkscape:pageopacity="0.0"
     inkscape:pagecheckerboard="0"
     inkscape:deskcolor="#d1d1d1"
     inkscape:document-units="mm"
     showgrid="false"
     inkscape:zoom="0.4204826"
     inkscape:cx="167.66449"
     inkscape:cy="406.67556"
     inkscape:window-width="1680"
     inkscape:window-height="981"
     inkscape:window-x="-8"
     inkscape:window-y="-8"
     inkscape:window-maximized="1"
     inkscape:current-layer="layer1" />
  <defs
     id="defs28769" />
  <g
     inkscape:label="Layer 1"
     inkscape:groupmode="layer"
     id="layer1">
    <path
       id="path31448"
       style="opacity:0.5;color:#000000;display:inline;fill:#000000;stroke-width:30;stroke-linecap:round;stroke-linejoin:round;-inkscape-stroke:none"
       d="M 127.99994 0 C 57.48537 0 5.0132687e-14 57.48537 0 127.99994 C 0 198.51451 57.48537 255.99988 127.99994 255.99988 C 198.51451 255.99988 255.99988 198.51451 255.99988 127.99994 C 255.99988 57.48537 198.51451 5.0132687e-14 127.99994 0 z M 101.29511 69.241768 C 101.8307 69.239792 102.37228 69.267607 102.91827 69.326518 C 104.98058 69.549044 106.97463 70.214749 108.77062 71.279887 L 145.46709 93.050651 L 182.16407 114.8209 C 192.02769 120.67448 192.02769 135.30421 182.16407 141.15779 L 145.46709 162.92804 L 108.77062 184.69932 C 98.905491 190.54991 86.575723 183.23485 86.574044 171.53062 L 86.574044 127.9896 L 86.574044 84.448075 C 86.575213 75.986299 93.261298 69.271413 101.29511 69.241768 z " />
  </g>
</svg>
